<svg width="71" height="54" viewBox="0 0 71 54" fill="none" xmlns="http://www.w3.org/2000/svg">
<path d="M49.4996 18V26C49.4996 26.2652 49.3942 26.5196 49.2067 26.7071C49.0192 26.8946 48.7648 27 48.4996 27C48.2344 27 47.98 26.8946 47.7925 26.7071C47.6049 26.5196 47.4996 26.2652 47.4996 26V20.4137L37.2071 30.7075C37.1142 30.8005 37.0039 30.8742 36.8825 30.9246C36.7611 30.9749 36.631 31.0008 36.4996 31.0008C36.3682 31.0008 36.238 30.9749 36.1166 30.9246C35.9952 30.8742 35.885 30.8005 35.7921 30.7075L31.4996 26.4137L23.2071 34.7075C23.0194 34.8951 22.7649 35.0006 22.4996 35.0006C22.2342 35.0006 21.9797 34.8951 21.7921 34.7075C21.6044 34.5199 21.499 34.2654 21.499 34C21.499 33.7346 21.6044 33.4801 21.7921 33.2925L30.7921 24.2925C30.885 24.1995 30.9952 24.1258 31.1166 24.0754C31.238 24.0251 31.3682 23.9992 31.4996 23.9992C31.631 23.9992 31.7611 24.0251 31.8825 24.0754C32.0039 24.1258 32.1142 24.1995 32.2071 24.2925L36.4996 28.5863L46.0858 19H40.4996C40.2344 19 39.98 18.8946 39.7925 18.7071C39.6049 18.5196 39.4996 18.2652 39.4996 18C39.4996 17.7348 39.6049 17.4804 39.7925 17.2929C39.98 17.1054 40.2344 17 40.4996 17H48.4996C48.7648 17 49.0192 17.1054 49.2067 17.2929C49.3942 17.4804 49.4996 17.7348 49.4996 18Z" fill="#C9D9FF"/>
</svg>
