<svg width="66" height="66" viewBox="0 0 66 66" fill="none" xmlns="http://www.w3.org/2000/svg">
<path d="M47.6057 35.5063L43.6431 39.5596C43.468 39.7387 43.2288 39.841 42.9783 39.8438C42.7277 39.8467 42.4863 39.7499 42.3071 39.5747L38.2538 35.6121C38.0746 35.4369 37.9724 35.1978 37.9696 34.9472C37.9667 34.6967 38.0635 34.4553 38.2387 34.2761C38.4139 34.0969 38.653 33.9947 38.9036 33.9918C39.1541 33.989 39.3955 34.0858 39.5747 34.261L41.8885 36.523L41.6541 32.2708L41.6528 32.2299C41.6315 30.3733 41.0635 28.5642 40.02 27.0286C38.9764 25.4929 37.5035 24.2988 35.7852 23.5954C34.067 22.8919 32.1795 22.7104 30.3587 23.0735C28.5379 23.4365 26.8643 24.328 25.5472 25.6366C24.2301 26.9452 23.3278 28.6129 22.953 30.4314C22.5782 32.2498 22.7475 34.1384 23.4398 35.8612C24.1321 37.584 25.3167 39.0646 26.8455 40.1181C28.3744 41.1715 30.1798 41.7511 32.0362 41.7845C32.2868 41.7886 32.5256 41.8922 32.6999 42.0724C32.8742 42.2525 32.9698 42.4946 32.9657 42.7452C32.9615 42.9959 32.858 43.2346 32.6778 43.4089C32.4977 43.5832 32.2556 43.6788 32.005 43.6747C29.1106 43.6308 26.3442 42.475 24.2788 40.4468L24.1674 40.3378C22.8575 39.0216 21.8909 37.4039 21.3527 35.6267C20.8144 33.8495 20.7209 31.9673 21.0804 30.1455C21.4399 28.3237 22.2415 26.6182 23.4145 25.1787C24.5875 23.7392 26.0962 22.6099 27.8079 21.8901C29.5196 21.1702 31.3819 20.8818 33.2312 21.0502C35.0804 21.2187 36.86 21.8387 38.4135 22.856C39.967 23.8732 41.2468 25.2565 42.1405 26.8842C43.0342 28.5119 43.5144 30.3343 43.5389 32.191L43.7945 36.7018L46.2546 34.1854C46.4298 34.0062 46.6689 33.904 46.9195 33.9011C47.17 33.8983 47.4115 33.9951 47.5906 34.1703C47.7698 34.3454 47.872 34.5846 47.8749 34.8351C47.8777 35.0857 47.7809 35.3271 47.6057 35.5063Z" fill="#FF7676"/>
</svg>
