<svg width="71" height="54" viewBox="0 0 71 54" fill="none" xmlns="http://www.w3.org/2000/svg">
<path d="M47.5 17H23.5C23.2348 17 22.9804 17.1054 22.7929 17.2929C22.6054 17.4804 22.5 17.7348 22.5 18V35C22.5 35.5304 22.7107 36.0391 23.0858 36.4142C23.4609 36.7893 23.9696 37 24.5 37H46.5C47.0304 37 47.5391 36.7893 47.9142 36.4142C48.2893 36.0391 48.5 35.5304 48.5 35V18C48.5 17.7348 48.3946 17.4804 48.2071 17.2929C48.0196 17.1054 47.7652 17 47.5 17ZM35.5 27.6437L26.0712 19H44.9287L35.5 27.6437ZM31.8387 27L24.5 33.7262V20.2738L31.8387 27ZM33.3188 28.3563L34.8188 29.7375C35.0032 29.9069 35.2446 30.0008 35.495 30.0008C35.7454 30.0008 35.9868 29.9069 36.1712 29.7375L37.6712 28.3563L44.9212 35H26.0712L33.3188 28.3563ZM39.1612 27L46.5 20.2725V33.7275L39.1612 27Z" fill="#C9D9FF"/>
</svg>
