<svg width="71" height="54" viewBox="0 0 71 54" fill="none" xmlns="http://www.w3.org/2000/svg">
<path d="M46.2075 21.2925L39.2075 14.2925C39.1146 14.1997 39.0042 14.1261 38.8829 14.0759C38.7615 14.0257 38.6314 13.9999 38.5 14H26.5C25.9696 14 25.4609 14.2107 25.0858 14.5858C24.7107 14.9609 24.5 15.4696 24.5 16V38C24.5 38.5304 24.7107 39.0391 25.0858 39.4142C25.4609 39.7893 25.9696 40 26.5 40H44.5C45.0304 40 45.5391 39.7893 45.9142 39.4142C46.2893 39.0391 46.5 38.5304 46.5 38V22C46.5001 21.8686 46.4743 21.7385 46.4241 21.6172C46.3739 21.4958 46.3003 21.3854 46.2075 21.2925ZM39.5 17.4138L43.0863 21H39.5V17.4138ZM44.5 38H26.5V16H37.5V22C37.5 22.2652 37.6054 22.5196 37.7929 22.7071C37.9804 22.8946 38.2348 23 38.5 23H44.5V38Z" fill="#C9D9FF"/>
</svg>
