<svg width="101" height="105" viewBox="0 0 101 105" fill="none" xmlns="http://www.w3.org/2000/svg">
<g opacity="0.1">
<path opacity="0.1" d="M93.0038 94.5928V96.9999H90.5967" stroke="#20263C" stroke-width="15.6128" stroke-miterlimit="10"/>
<path opacity="0.1" d="M85.9578 96.998H-4.28711" stroke="#20263C" stroke-width="15.6128" stroke-miterlimit="10" stroke-dasharray="90.09 90.09"/>
<path opacity="0.1" d="M-1.9707 -5H88.2822" stroke="#20263C" stroke-width="15.6128" stroke-miterlimit="10" stroke-dasharray="90.09 90.09"/>
<path opacity="0.1" d="M90.5967 -5H93.0038V-2.59283" stroke="#20263C" stroke-width="15.6128" stroke-miterlimit="10"/>
<path opacity="0.1" d="M93 2.02637V92.2793" stroke="#20263C" stroke-width="15.6128" stroke-miterlimit="10" stroke-dasharray="90.09 90.09"/>
</g>
<path d="M41.5789 30.7353L48.9403 35.1193L52.6728 32.903L41.5789 26.293L30.3154 32.6114L34.0856 35.0415L41.5789 30.7353Z" fill="#4AA3F5"/>
<path d="M51.1827 36.2115L41.9152 41.6592L32.4791 36.2109H26.3086L41.9152 45.3181L57.6982 36.2109L51.1827 36.2115Z" fill="#A3DDFE"/>
<path d="M28.5621 46.5815L25.502 44.7471V55.6734L36.7354 62.3997V58.3767L28.5621 53.8389V46.5815Z" fill="#4AA3F5"/>
<path d="M28.3103 42.7426L38.1075 48.4151L38.3402 63.6045L41.5498 64.808L41.277 46.5857L25.502 37.4785L28.3103 42.7426Z" fill="#4AA3F5"/>
<path d="M55.159 42.7102L57.5982 37.5273L42.5439 46.5863V64.8086L45.7134 62.9792V48.4158L55.159 42.7102Z" fill="#4AA3F5"/>
<path d="M55.1513 47.1542V53.8622L47.167 58.3877V62.3997L58.3288 55.6916L57.9993 44.7471L55.1513 47.1542Z" fill="#4AA3F5"/>
</svg>
