<svg width="85" height="54" viewBox="0 0 85 54" fill="none" xmlns="http://www.w3.org/2000/svg">
<path d="M52.5 16H30.5C29.9696 16 29.4609 16.2107 29.0858 16.5858C28.7107 16.9609 28.5 17.4696 28.5 18V36C28.5 36.5304 28.7107 37.0391 29.0858 37.4142C29.4609 37.7893 29.9696 38 30.5 38H32.1737C32.363 38.0001 32.5484 37.9464 32.7084 37.8453C32.8684 37.7442 32.9964 37.5997 33.0775 37.4287C33.5638 36.4021 34.3315 35.5346 35.2914 34.9271C36.2514 34.3196 37.364 33.9971 38.5 33.9971C39.636 33.9971 40.7486 34.3196 41.7086 34.9271C42.6685 35.5346 43.4362 36.4021 43.9225 37.4287C44.0036 37.5997 44.1316 37.7442 44.2916 37.8453C44.4516 37.9464 44.637 38.0001 44.8263 38H52.5C53.0304 38 53.5391 37.7893 53.9142 37.4142C54.2893 37.0391 54.5 36.5304 54.5 36V18C54.5 17.4696 54.2893 16.9609 53.9142 16.5858C53.5391 16.2107 53.0304 16 52.5 16ZM35.5 29C35.5 28.4067 35.6759 27.8266 36.0056 27.3333C36.3352 26.8399 36.8038 26.4554 37.3519 26.2284C37.9001 26.0013 38.5033 25.9419 39.0853 26.0576C39.6672 26.1734 40.2018 26.4591 40.6213 26.8787C41.0409 27.2982 41.3266 27.8328 41.4424 28.4147C41.5581 28.9967 41.4987 29.5999 41.2716 30.1481C41.0446 30.6962 40.6601 31.1648 40.1667 31.4944C39.6734 31.8241 39.0933 32 38.5 32C37.7044 32 36.9413 31.6839 36.3787 31.1213C35.8161 30.5587 35.5 29.7956 35.5 29ZM52.5 36H45.4287C44.5937 34.5643 43.3349 33.4221 41.825 32.73C42.582 32.056 43.1162 31.1678 43.357 30.1832C43.5977 29.1986 43.5335 28.1641 43.1729 27.2169C42.8122 26.2696 42.1723 25.4543 41.3377 24.8791C40.5032 24.3038 39.5136 23.9958 38.5 23.9958C37.4864 23.9958 36.4968 24.3038 35.6623 24.8791C34.8277 25.4543 34.1878 26.2696 33.8271 27.2169C33.4665 28.1641 33.4023 29.1986 33.643 30.1832C33.8838 31.1678 34.418 32.056 35.175 32.73C33.6651 33.4221 32.4063 34.5643 31.5712 36H30.5V18H52.5V36ZM32.5 23V21C32.5 20.7348 32.6054 20.4804 32.7929 20.2929C32.9804 20.1054 33.2348 20 33.5 20H49.5C49.7652 20 50.0196 20.1054 50.2071 20.2929C50.3946 20.4804 50.5 20.7348 50.5 21V33C50.5 33.2652 50.3946 33.5196 50.2071 33.7071C50.0196 33.8946 49.7652 34 49.5 34H47.5C47.2348 34 46.9804 33.8946 46.7929 33.7071C46.6054 33.5196 46.5 33.2652 46.5 33C46.5 32.7348 46.6054 32.4804 46.7929 32.2929C46.9804 32.1054 47.2348 32 47.5 32H48.5V22H34.5V23C34.5 23.2652 34.3946 23.5196 34.2071 23.7071C34.0196 23.8946 33.7652 24 33.5 24C33.2348 24 32.9804 23.8946 32.7929 23.7071C32.6054 23.5196 32.5 23.2652 32.5 23Z" fill="#C9D9FF"/>
</svg>
