<svg width="71" height="54" viewBox="0 0 71 54" fill="none" xmlns="http://www.w3.org/2000/svg">
<g clip-path="url(#clip0_159_2388)">
<path d="M50.5 26H49.5V22C49.5 21.4696 49.2893 20.9609 48.9142 20.5858C48.5391 20.2107 48.0304 20 47.5 20H45.5V19C45.5 18.4696 45.2893 17.9609 44.9142 17.5858C44.5391 17.2107 44.0304 17 43.5 17H40.5C39.9696 17 39.4609 17.2107 39.0858 17.5858C38.7107 17.9609 38.5 18.4696 38.5 19V26H32.5V19C32.5 18.4696 32.2893 17.9609 31.9142 17.5858C31.5391 17.2107 31.0304 17 30.5 17H27.5C26.9696 17 26.4609 17.2107 26.0858 17.5858C25.7107 17.9609 25.5 18.4696 25.5 19V20H23.5C22.9696 20 22.4609 20.2107 22.0858 20.5858C21.7107 20.9609 21.5 21.4696 21.5 22V26H20.5C20.2348 26 19.9804 26.1054 19.7929 26.2929C19.6054 26.4804 19.5 26.7348 19.5 27C19.5 27.2652 19.6054 27.5196 19.7929 27.7071C19.9804 27.8946 20.2348 28 20.5 28H21.5V32C21.5 32.5304 21.7107 33.0391 22.0858 33.4142C22.4609 33.7893 22.9696 34 23.5 34H25.5V35C25.5 35.5304 25.7107 36.0391 26.0858 36.4142C26.4609 36.7893 26.9696 37 27.5 37H30.5C31.0304 37 31.5391 36.7893 31.9142 36.4142C32.2893 36.0391 32.5 35.5304 32.5 35V28H38.5V35C38.5 35.5304 38.7107 36.0391 39.0858 36.4142C39.4609 36.7893 39.9696 37 40.5 37H43.5C44.0304 37 44.5391 36.7893 44.9142 36.4142C45.2893 36.0391 45.5 35.5304 45.5 35V34H47.5C48.0304 34 48.5391 33.7893 48.9142 33.4142C49.2893 33.0391 49.5 32.5304 49.5 32V28H50.5C50.7652 28 51.0196 27.8946 51.2071 27.7071C51.3946 27.5196 51.5 27.2652 51.5 27C51.5 26.7348 51.3946 26.4804 51.2071 26.2929C51.0196 26.1054 50.7652 26 50.5 26ZM23.5 32V22H25.5V32H23.5ZM30.5 35H27.5V19H30.5V35ZM43.5 35H40.5V19H43.5V32.9775C43.5 32.985 43.5 32.9925 43.5 33C43.5 33.0075 43.5 33.015 43.5 33.0225V35ZM47.5 32H45.5V22H47.5V32Z" fill="#C9D9FF"/>
</g>
<defs>
<clipPath id="clip0_159_2388">
<rect width="32" height="32" fill="white" transform="translate(19.5 11)"/>
</clipPath>
</defs>
</svg>
