<svg width="27" height="31" viewBox="0 0 27 31" fill="none" xmlns="http://www.w3.org/2000/svg">
<g filter="url(#filter0_d_237_4600)">
<path d="M20.3808 12.4815C20.1157 12.2045 19.8415 11.919 19.7381 11.668C19.6425 11.438 19.6369 11.057 19.6312 10.6878C19.6207 10.0016 19.6095 9.22391 19.0687 8.6832C18.528 8.1425 17.7504 8.13125 17.0641 8.1207C16.695 8.11508 16.3139 8.10945 16.084 8.01383C15.8337 7.91047 15.5475 7.63625 15.2705 7.37117C14.7853 6.905 14.2341 6.37695 13.5 6.37695C12.7659 6.37695 12.2154 6.905 11.7295 7.37117C11.4525 7.63625 11.167 7.91047 10.916 8.01383C10.6875 8.10945 10.305 8.11508 9.93586 8.1207C9.24961 8.13125 8.47195 8.1425 7.93125 8.6832C7.39055 9.22391 7.38281 10.0016 7.36875 10.6878C7.36312 11.057 7.3575 11.438 7.26187 11.668C7.15852 11.9183 6.8843 12.2045 6.61922 12.4815C6.15305 12.9666 5.625 13.5179 5.625 14.252C5.625 14.986 6.15305 15.5366 6.61922 16.0224C6.8843 16.2995 7.15852 16.5849 7.26187 16.8359C7.3575 17.0659 7.36312 17.447 7.36875 17.8161C7.3793 18.5023 7.39055 19.28 7.93125 19.8207C8.47195 20.3614 9.24961 20.3727 9.93586 20.3832C10.305 20.3888 10.6861 20.3945 10.916 20.4901C11.1663 20.5934 11.4525 20.8677 11.7295 21.1327C12.2147 21.5989 12.7659 22.127 13.5 22.127C14.2341 22.127 14.7846 21.5989 15.2705 21.1327C15.5475 20.8677 15.833 20.5934 16.084 20.4901C16.3139 20.3945 16.695 20.3888 17.0641 20.3832C17.7504 20.3727 18.528 20.3614 19.0687 19.8207C19.6095 19.28 19.6207 18.5023 19.6312 17.8161C19.6369 17.447 19.6425 17.0659 19.7381 16.8359C19.8415 16.5856 20.1157 16.2995 20.3808 16.0224C20.847 15.5373 21.375 14.986 21.375 14.252C21.375 13.5179 20.847 12.9673 20.3808 12.4815ZM19.5687 15.2441C19.2319 15.5956 18.8831 15.9591 18.6982 16.4056C18.521 16.8345 18.5133 17.3246 18.5062 17.7992C18.4992 18.2914 18.4915 18.8068 18.2728 19.0248C18.0541 19.2427 17.5423 19.2512 17.0473 19.2582C16.5727 19.2652 16.0826 19.273 15.6537 19.4502C15.2072 19.6351 14.8437 19.9838 14.4921 20.3206C14.1405 20.6574 13.7812 21.002 13.5 21.002C13.2188 21.002 12.8566 20.656 12.5079 20.3206C12.1591 19.9852 11.7928 19.6351 11.3463 19.4502C10.9174 19.273 10.4273 19.2652 9.95273 19.2582C9.46055 19.2512 8.94516 19.2434 8.72719 19.0248C8.50922 18.8061 8.50078 18.2942 8.49375 17.7992C8.48672 17.3246 8.47898 16.8345 8.3018 16.4056C8.11688 15.9591 7.76812 15.5956 7.43133 15.2441C7.09453 14.8925 6.75 14.5332 6.75 14.252C6.75 13.9707 7.09594 13.6086 7.43133 13.2598C7.76672 12.9111 8.11688 12.5448 8.3018 12.0983C8.47898 11.6694 8.48672 11.1793 8.49375 10.7047C8.50078 10.2125 8.50852 9.69711 8.72719 9.47914C8.94586 9.26117 9.45773 9.25273 9.95273 9.2457C10.4273 9.23867 10.9174 9.23094 11.3463 9.05375C11.7928 8.86883 12.1563 8.52008 12.5079 8.18328C12.8595 7.84648 13.2188 7.50195 13.5 7.50195C13.7812 7.50195 14.1434 7.84789 14.4921 8.18328C14.8409 8.51867 15.2072 8.86883 15.6537 9.05375C16.0826 9.23094 16.5727 9.23867 17.0473 9.2457C17.5395 9.25273 18.0548 9.26047 18.2728 9.47914C18.4908 9.69781 18.4992 10.2097 18.5062 10.7047C18.5133 11.1793 18.521 11.6694 18.6982 12.0983C18.8831 12.5448 19.2319 12.9083 19.5687 13.2598C19.9055 13.6114 20.25 13.9707 20.25 14.252C20.25 14.5332 19.9041 14.8953 19.5687 15.2441ZM14.3438 17.9082C14.3438 18.0751 14.2943 18.2382 14.2016 18.377C14.1088 18.5157 13.9771 18.6239 13.8229 18.6877C13.6687 18.7516 13.4991 18.7683 13.3354 18.7357C13.1717 18.7032 13.0214 18.6228 12.9034 18.5048C12.7854 18.3868 12.705 18.2365 12.6725 18.0728C12.6399 17.9091 12.6566 17.7395 12.7205 17.5853C12.7843 17.4311 12.8925 17.2994 13.0312 17.2067C13.17 17.1139 13.3331 17.0645 13.5 17.0645C13.7238 17.0645 13.9384 17.1533 14.0966 17.3116C14.2549 17.4698 14.3438 17.6844 14.3438 17.9082ZM16.3125 12.8457C16.3125 14.0677 15.345 15.0908 14.0625 15.3263V15.377C14.0625 15.5261 14.0032 15.6692 13.8977 15.7747C13.7923 15.8802 13.6492 15.9395 13.5 15.9395C13.3508 15.9395 13.2077 15.8802 13.1023 15.7747C12.9968 15.6692 12.9375 15.5261 12.9375 15.377V14.8145C12.9375 14.6653 12.9968 14.5222 13.1023 14.4167C13.2077 14.3112 13.3508 14.252 13.5 14.252C14.4302 14.252 15.1875 13.6191 15.1875 12.8457C15.1875 12.0723 14.4302 11.4395 13.5 11.4395C12.5698 11.4395 11.8125 12.0723 11.8125 12.8457V13.127C11.8125 13.2761 11.7532 13.4192 11.6477 13.5247C11.5423 13.6302 11.3992 13.6895 11.25 13.6895C11.1008 13.6895 10.9577 13.6302 10.8523 13.5247C10.7468 13.4192 10.6875 13.2761 10.6875 13.127V12.8457C10.6875 11.45 11.9489 10.3145 13.5 10.3145C15.0511 10.3145 16.3125 11.45 16.3125 12.8457Z" fill="black"/>
</g>
<defs>
<filter id="filter0_d_237_4600" x="-4" y="0.751953" width="35" height="35" filterUnits="userSpaceOnUse" color-interpolation-filters="sRGB">
<feFlood flood-opacity="0" result="BackgroundImageFix"/>
<feColorMatrix in="SourceAlpha" type="matrix" values="0 0 0 0 0 0 0 0 0 0 0 0 0 0 0 0 0 0 127 0" result="hardAlpha"/>
<feOffset dy="4"/>
<feGaussianBlur stdDeviation="2"/>
<feComposite in2="hardAlpha" operator="out"/>
<feColorMatrix type="matrix" values="0 0 0 0 0 0 0 0 0 0 0 0 0 0 0 0 0 0 0.25 0"/>
<feBlend mode="normal" in2="BackgroundImageFix" result="effect1_dropShadow_237_4600"/>
<feBlend mode="normal" in="SourceGraphic" in2="effect1_dropShadow_237_4600" result="shape"/>
</filter>
</defs>
</svg>
