<svg width="23" height="20" viewBox="0 0 23 20" fill="none" xmlns="http://www.w3.org/2000/svg">
<path d="M22.2301 12.4595L19.0344 15.7283C18.8931 15.8728 18.7003 15.9553 18.4982 15.9576C18.2962 15.9599 18.1015 15.8818 17.957 15.7405L14.6882 12.5449C14.5437 12.4036 14.4612 12.2107 14.4589 12.0087C14.4567 11.8066 14.5347 11.6119 14.676 11.4675C14.8172 11.323 15.0101 11.2405 15.2122 11.2382C15.4142 11.2359 15.6089 11.314 15.7534 11.4553L17.6193 13.2795L17.4304 9.85027L17.4293 9.81729C17.4121 8.32006 16.9541 6.86111 16.1125 5.62268C15.2709 4.38424 14.0831 3.42124 12.6974 2.85396C11.3117 2.28669 9.78956 2.1403 8.32114 2.43307C6.85273 2.72584 5.50313 3.44481 4.44094 4.50014C3.37876 5.55548 2.65109 6.9004 2.34882 8.36689C2.04655 9.83338 2.1831 11.3564 2.7414 12.7458C3.2997 14.1351 4.255 15.3292 5.48797 16.1787C6.72093 17.0283 8.17689 17.4957 9.67397 17.5226C9.87611 17.526 10.0686 17.6095 10.2092 17.7548C10.3498 17.9001 10.4269 18.0952 10.4236 18.2974C10.4202 18.4995 10.3367 18.6921 10.1914 18.8326C10.0461 18.9732 9.85093 19.0503 9.64879 19.047C7.31465 19.0116 5.08362 18.0794 3.41805 16.4438L3.32815 16.3559C2.27178 15.2945 1.4923 13.9899 1.05822 12.5566C0.624137 11.1234 0.548751 9.60553 0.838682 8.13635C1.12861 6.66718 1.77499 5.29171 2.72099 4.13084C3.66699 2.96998 4.88366 2.05925 6.26407 1.47872C7.64447 0.898182 9.14634 0.665607 10.6377 0.801435C12.129 0.937264 13.5642 1.43734 14.817 2.2577C16.0698 3.07807 17.1019 4.19361 17.8226 5.50628C18.5433 6.81895 18.9306 8.28855 18.9503 9.78593L19.1565 13.4237L21.1405 11.3943C21.2817 11.2498 21.4746 11.1674 21.6766 11.1651C21.8787 11.1628 22.0734 11.2409 22.2179 11.3821C22.3624 11.5234 22.4448 11.7162 22.4471 11.9183C22.4494 12.1204 22.3713 12.315 22.2301 12.4595Z" fill="black"/>
</svg>
