<svg width="71" height="54" viewBox="0 0 71 54" fill="none" xmlns="http://www.w3.org/2000/svg">
<g clip-path="url(#clip0_159_781)">
<path d="M48.2913 28.6326C47.9642 28.3806 47.5894 28.1978 47.1894 28.0953C46.7895 27.9928 46.3729 27.9727 45.965 28.0364C48.3125 25.6664 49.5 23.3101 49.5 21.0001C49.5 17.6914 46.8387 15.0001 43.5675 15.0001C42.6995 14.9947 41.8408 15.1793 41.0518 15.541C40.2627 15.9027 39.5624 16.4327 39 17.0939C38.4376 16.4327 37.7373 15.9027 36.9482 15.541C36.1592 15.1793 35.3005 14.9947 34.4325 15.0001C31.1613 15.0001 28.5 17.6914 28.5 21.0001C28.5 22.3751 28.905 23.7114 29.7575 25.1251C29.0593 25.302 28.4221 25.6649 27.9137 26.1751L25.0862 29.0001H21.5C20.9696 29.0001 20.4609 29.2108 20.0858 29.5859C19.7107 29.961 19.5 30.4697 19.5 31.0001V36.0001C19.5 36.5306 19.7107 37.0393 20.0858 37.4143C20.4609 37.7894 20.9696 38.0001 21.5 38.0001H34.5C34.5818 38.0002 34.6632 37.9901 34.7425 37.9701L42.7425 35.9701C42.7935 35.958 42.8433 35.9412 42.8913 35.9201L47.75 33.8526L47.805 33.8276C48.272 33.5943 48.6718 33.2459 48.9669 32.8153C49.2621 32.3847 49.4427 31.8861 49.4918 31.3664C49.541 30.8467 49.457 30.3231 49.2478 29.8448C49.0387 29.3665 48.7112 28.9493 48.2962 28.6326H48.2913ZM34.4325 17.0001C35.207 16.9888 35.9673 17.2087 36.6162 17.6318C37.265 18.0549 37.773 18.6618 38.075 19.3751C38.1503 19.5585 38.2785 19.7154 38.4432 19.8258C38.6079 19.9362 38.8017 19.9952 39 19.9952C39.1983 19.9952 39.3921 19.9362 39.5568 19.8258C39.7215 19.7154 39.8497 19.5585 39.925 19.3751C40.227 18.6618 40.735 18.0549 41.3838 17.6318C42.0327 17.2087 42.793 16.9888 43.5675 17.0001C45.6987 17.0001 47.5 18.8314 47.5 21.0001C47.5 23.4389 45.5262 26.1976 41.7925 28.9876L40.4062 29.3064C40.5279 28.7924 40.5317 28.2575 40.4172 27.7418C40.3028 27.2261 40.0731 26.7431 39.7454 26.3288C39.4177 25.9145 39.0005 25.5798 38.5251 25.3497C38.0496 25.1196 37.5282 25.0001 37 25.0001H32.085C31.0063 23.5451 30.5 22.2651 30.5 21.0001C30.5 18.8314 32.3013 17.0001 34.4325 17.0001ZM21.5 31.0001H24.5V36.0001H21.5V31.0001ZM46.9287 32.0264L42.1787 34.0489L34.375 36.0001H26.5V30.4139L29.3287 27.5864C29.5138 27.3998 29.7341 27.252 29.9768 27.1513C30.2195 27.0507 30.4798 26.9993 30.7425 27.0001H37C37.3978 27.0001 37.7794 27.1582 38.0607 27.4395C38.342 27.7208 38.5 28.1023 38.5 28.5001C38.5 28.8979 38.342 29.2795 38.0607 29.5608C37.7794 29.8421 37.3978 30.0001 37 30.0001H33.5C33.2348 30.0001 32.9804 30.1055 32.7929 30.293C32.6054 30.4805 32.5 30.7349 32.5 31.0001C32.5 31.2653 32.6054 31.5197 32.7929 31.7072C32.9804 31.8948 33.2348 32.0001 33.5 32.0001H37.5C37.5753 31.9999 37.6503 31.9915 37.7237 31.9751L46.0987 30.0489L46.1375 30.0389C46.3932 29.9679 46.666 29.994 46.9036 30.1121C47.1412 30.2302 47.3267 30.432 47.4245 30.6787C47.5222 30.9254 47.5253 31.1995 47.4331 31.4483C47.3409 31.6971 47.1599 31.903 46.925 32.0264H46.9287Z" fill="#C9D9FF"/>
</g>
<defs>
<clipPath id="clip0_159_781">
<rect width="32" height="32" fill="white" transform="translate(19.5 11)"/>
</clipPath>
</defs>
</svg>
